<mxfile host="app.diagrams.net" modified="2023-10-19T05:57:22.683Z" agent="Mozilla/5.0 (Windows NT 10.0; Win64; x64) AppleWebKit/537.36 (KHTML, like Gecko) Chrome/118.0.0.0 Safari/537.36" etag="3T9FSf5-eNjJ69grm8SQ" version="22.0.4" type="google">
  <diagram id="C5RBs43oDa-KdzZeNtuy" name="Page-1">
    <mxGraphModel grid="1" page="1" gridSize="10" guides="1" tooltips="1" connect="1" arrows="1" fold="1" pageScale="1" pageWidth="827" pageHeight="1169" math="0" shadow="0">
      <root>
        <mxCell id="WIyWlLk6GJQsqaUBKTNV-0" />
        <mxCell id="WIyWlLk6GJQsqaUBKTNV-1" parent="WIyWlLk6GJQsqaUBKTNV-0" />
        <mxCell id="WIyWlLk6GJQsqaUBKTNV-2" value="" style="rounded=0;html=1;jettySize=auto;orthogonalLoop=1;fontSize=11;endArrow=block;endFill=0;endSize=8;strokeWidth=1;shadow=0;labelBackgroundColor=none;edgeStyle=orthogonalEdgeStyle;" edge="1" parent="WIyWlLk6GJQsqaUBKTNV-1" source="WIyWlLk6GJQsqaUBKTNV-3">
          <mxGeometry relative="1" as="geometry">
            <mxPoint x="220" y="170" as="targetPoint" />
          </mxGeometry>
        </mxCell>
        <mxCell id="WIyWlLk6GJQsqaUBKTNV-3" value="시작" style="rounded=1;whiteSpace=wrap;html=1;fontSize=12;glass=0;strokeWidth=1;shadow=0;" vertex="1" parent="WIyWlLk6GJQsqaUBKTNV-1">
          <mxGeometry x="160" y="80" width="120" height="40" as="geometry" />
        </mxCell>
        <mxCell id="UWsyBd75Llv80SivHiSh-1" value="&lt;div&gt;int user;&lt;/div&gt;&lt;div&gt;int count = 0;&lt;span style=&quot;&quot;&gt;&lt;/span&gt;&lt;/div&gt;" style="rhombus;whiteSpace=wrap;html=1;shadow=0;strokeColor=default;strokeWidth=1;align=center;verticalAlign=middle;spacingTop=-4;spacing=6;fontFamily=Helvetica;fontSize=12;fontColor=default;fillColor=default;" vertex="1" parent="WIyWlLk6GJQsqaUBKTNV-1">
          <mxGeometry x="155" y="260" width="130" height="100" as="geometry" />
        </mxCell>
        <mxCell id="UWsyBd75Llv80SivHiSh-10" value="" style="edgeStyle=orthogonalEdgeStyle;rounded=0;orthogonalLoop=1;jettySize=auto;html=1;fontFamily=Helvetica;fontSize=12;fontColor=default;" edge="1" parent="WIyWlLk6GJQsqaUBKTNV-1" source="UWsyBd75Llv80SivHiSh-3" target="UWsyBd75Llv80SivHiSh-1">
          <mxGeometry relative="1" as="geometry" />
        </mxCell>
        <mxCell id="UWsyBd75Llv80SivHiSh-3" value="int answer = ran.nextInt(100) + 1;" style="rounded=1;whiteSpace=wrap;html=1;shadow=0;strokeColor=default;strokeWidth=1;align=center;verticalAlign=middle;spacingTop=-4;spacing=6;fontFamily=Helvetica;fontSize=12;fontColor=default;fillColor=default;" vertex="1" parent="WIyWlLk6GJQsqaUBKTNV-1">
          <mxGeometry x="160" y="170" width="120" height="60" as="geometry" />
        </mxCell>
        <mxCell id="UWsyBd75Llv80SivHiSh-5" value="정답, 도전한 횟수:,answer,count" style="rounded=1;whiteSpace=wrap;html=1;shadow=0;strokeColor=default;strokeWidth=1;align=center;verticalAlign=middle;spacingTop=-4;spacing=6;fontFamily=Helvetica;fontSize=12;fontColor=default;fillColor=default;" vertex="1" parent="WIyWlLk6GJQsqaUBKTNV-1">
          <mxGeometry x="160" y="525" width="120" height="60" as="geometry" />
        </mxCell>
        <mxCell id="UWsyBd75Llv80SivHiSh-25" style="edgeStyle=orthogonalEdgeStyle;rounded=0;orthogonalLoop=1;jettySize=auto;html=1;fontFamily=Helvetica;fontSize=12;fontColor=default;" edge="1" parent="WIyWlLk6GJQsqaUBKTNV-1" source="UWsyBd75Llv80SivHiSh-7" target="UWsyBd75Llv80SivHiSh-5">
          <mxGeometry relative="1" as="geometry" />
        </mxCell>
        <mxCell id="UWsyBd75Llv80SivHiSh-7" value="user &amp;lt; answer&lt;br&gt;user&amp;gt; answer" style="rhombus;whiteSpace=wrap;html=1;shadow=0;strokeColor=default;strokeWidth=1;align=center;verticalAlign=middle;spacingTop=-4;spacing=6;fontFamily=Helvetica;fontSize=12;fontColor=default;fillColor=default;" vertex="1" parent="WIyWlLk6GJQsqaUBKTNV-1">
          <mxGeometry x="150" y="400" width="140" height="80" as="geometry" />
        </mxCell>
        <mxCell id="UWsyBd75Llv80SivHiSh-9" value="" style="endArrow=classic;html=1;rounded=0;fontFamily=Helvetica;fontSize=12;fontColor=default;entryX=0.5;entryY=0;entryDx=0;entryDy=0;" edge="1" parent="WIyWlLk6GJQsqaUBKTNV-1" target="UWsyBd75Llv80SivHiSh-1">
          <mxGeometry width="50" height="50" relative="1" as="geometry">
            <mxPoint x="219.5" y="230" as="sourcePoint" />
            <mxPoint x="220" y="250" as="targetPoint" />
          </mxGeometry>
        </mxCell>
        <mxCell id="UWsyBd75Llv80SivHiSh-13" value="" style="endArrow=classic;html=1;rounded=0;fontFamily=Helvetica;fontSize=12;fontColor=default;entryX=0.5;entryY=0;entryDx=0;entryDy=0;" edge="1" parent="WIyWlLk6GJQsqaUBKTNV-1" target="UWsyBd75Llv80SivHiSh-7">
          <mxGeometry width="50" height="50" relative="1" as="geometry">
            <mxPoint x="219.75" y="360" as="sourcePoint" />
            <mxPoint x="220" y="380" as="targetPoint" />
          </mxGeometry>
        </mxCell>
        <mxCell id="UWsyBd75Llv80SivHiSh-17" value="" style="endArrow=classic;html=1;rounded=0;fontFamily=Helvetica;fontSize=12;fontColor=default;exitX=1;exitY=0.5;exitDx=0;exitDy=0;entryX=1;entryY=0.5;entryDx=0;entryDy=0;" edge="1" parent="WIyWlLk6GJQsqaUBKTNV-1" source="UWsyBd75Llv80SivHiSh-1" target="UWsyBd75Llv80SivHiSh-7">
          <mxGeometry width="50" height="50" relative="1" as="geometry">
            <mxPoint x="390" y="410" as="sourcePoint" />
            <mxPoint x="310" y="530" as="targetPoint" />
            <Array as="points">
              <mxPoint x="360" y="310" />
              <mxPoint x="360" y="440" />
            </Array>
          </mxGeometry>
        </mxCell>
        <mxCell id="UWsyBd75Llv80SivHiSh-18" value="end" style="rounded=1;whiteSpace=wrap;html=1;shadow=0;strokeColor=default;strokeWidth=1;align=center;verticalAlign=middle;spacingTop=-4;spacing=6;fontFamily=Helvetica;fontSize=12;fontColor=default;fillColor=default;" vertex="1" parent="WIyWlLk6GJQsqaUBKTNV-1">
          <mxGeometry x="160" y="620" width="120" height="60" as="geometry" />
        </mxCell>
        <mxCell id="UWsyBd75Llv80SivHiSh-19" value="" style="endArrow=classic;html=1;rounded=0;fontFamily=Helvetica;fontSize=12;fontColor=default;entryX=0.5;entryY=0;entryDx=0;entryDy=0;exitX=0.5;exitY=1;exitDx=0;exitDy=0;" edge="1" parent="WIyWlLk6GJQsqaUBKTNV-1" source="UWsyBd75Llv80SivHiSh-5" target="UWsyBd75Llv80SivHiSh-18">
          <mxGeometry width="50" height="50" relative="1" as="geometry">
            <mxPoint x="224.5" y="620" as="sourcePoint" />
            <mxPoint x="225" y="650" as="targetPoint" />
          </mxGeometry>
        </mxCell>
        <mxCell id="UWsyBd75Llv80SivHiSh-22" value="no" style="text;html=1;strokeColor=none;fillColor=none;align=center;verticalAlign=middle;whiteSpace=wrap;rounded=0;fontSize=12;fontFamily=Helvetica;fontColor=default;" vertex="1" parent="WIyWlLk6GJQsqaUBKTNV-1">
          <mxGeometry x="150" y="350" width="60" height="30" as="geometry" />
        </mxCell>
        <mxCell id="UWsyBd75Llv80SivHiSh-23" value="yes" style="text;html=1;strokeColor=none;fillColor=none;align=center;verticalAlign=middle;whiteSpace=wrap;rounded=0;fontSize=12;fontFamily=Helvetica;fontColor=default;" vertex="1" parent="WIyWlLk6GJQsqaUBKTNV-1">
          <mxGeometry x="370" y="350" width="60" height="30" as="geometry" />
        </mxCell>
        <mxCell id="UWsyBd75Llv80SivHiSh-24" value="no" style="text;html=1;strokeColor=none;fillColor=none;align=center;verticalAlign=middle;whiteSpace=wrap;rounded=0;fontSize=12;fontFamily=Helvetica;fontColor=default;" vertex="1" parent="WIyWlLk6GJQsqaUBKTNV-1">
          <mxGeometry x="155" y="460" width="60" height="30" as="geometry" />
        </mxCell>
      </root>
    </mxGraphModel>
  </diagram>
</mxfile>
